<?xml version="1.0" encoding="UTF-8" standalone="no"?>
<!-- Created with Inkscape (http://www.inkscape.org/) -->

<svg
   xmlns:dc="http://purl.org/dc/elements/1.1/"
   xmlns:cc="http://creativecommons.org/ns#"
   xmlns:rdf="http://www.w3.org/1999/02/22-rdf-syntax-ns#"
   xmlns:svg="http://www.w3.org/2000/svg"
   xmlns="http://www.w3.org/2000/svg"
   xmlns:sodipodi="http://sodipodi.sourceforge.net/DTD/sodipodi-0.dtd"
   xmlns:inkscape="http://www.inkscape.org/namespaces/inkscape"
   version="1.1"
   id="gasifier"
   width="551"
   height="920"
   viewBox="0 0 551 920"
   sodipodi:docname="gasifier.svg"
   inkscape:version="0.92.4 (0.92.4+202003022015+8da6682)">
  <metadata
     id="metadata5556">
    <rdf:RDF>
      <cc:Work
         rdf:about="">
        <dc:format>image/svg+xml</dc:format>
        <dc:type
           rdf:resource="http://purl.org/dc/dcmitype/StillImage" />
        <dc:title></dc:title>
      </cc:Work>
    </rdf:RDF>
  </metadata>
  <defs
     id="defs5554" />
  <sodipodi:namedview
     pagecolor="#ffffff"
     bordercolor="#666666"
     borderopacity="1"
     objecttolerance="10"
     gridtolerance="10"
     guidetolerance="10"
     inkscape:pageopacity="0"
     inkscape:pageshadow="2"
     inkscape:window-width="1440"
     inkscape:window-height="872"
     id="namedview5552"
     showgrid="false"
     inkscape:zoom="0.75"
     inkscape:cx="376.33877"
     inkscape:cy="505.15835"
     inkscape:window-x="1920"
     inkscape:window-y="0"
     inkscape:window-maximized="1"
     inkscape:current-layer="svg5550"
     showguides="false" />
  
  <rect
     style="fill:#ffffff;fill-opacity:1"
     id="rect8267"
     width="11.982634"
     height="7.3227205"
     x="225.00723"
     y="512.59045" />
  <rect
     style="fill:#ffffff;fill-opacity:1"
     id="rect8269"
     width="93.198265"
     height="17.308249"
     x="240.98409"
     y="517.91608" />
  <path
     id="rect8273"
     style="fill:#ffffff;fill-opacity:1"
     d="m 215.6875,525.9043 v 37.99414 h 13.41016 c 0.0104,-0.058 0.0206,-0.11594 0.0312,-0.17383 0.0214,-0.11327 -0.0322,-0.277 0.0645,-0.33984 0.005,-0.003 0.011,-0.003 0.0156,-0.006 0.006,-0.0299 0.0101,-0.06 0.0156,-0.0899 0.006,0.0489 0.006,0.043 0.01,0.0762 0.22377,-0.13545 0.49236,-0.21859 0.75195,-0.20312 0.0548,-0.42831 0.10523,-0.8573 0.17578,-1.2832 4.5e-4,-0.0908 6e-4,-0.18075 0.002,-0.27149 4.4e-4,-0.0533 -0.0502,-0.15219 0.002,-0.16015 0.0192,-0.003 0.0246,-0.003 0.043,-0.006 0.0403,-0.048 0.12569,-0.0646 0.30469,-0.0449 0.0559,-0.008 0.1444,-0.0228 0.1875,-0.0273 0.16002,-0.0168 0.2186,0.0123 0.25195,0.0664 0.007,-0.008 0.004,-0.008 0.0117,-0.0176 0.002,-0.0443 0.005,-0.0886 0.008,-0.13281 0.10998,-0.18846 0.17419,-0.26907 0.32617,-0.41602 10e-4,-0.004 5.1e-4,-0.008 0.002,-0.0117 0.0589,-0.16337 0.24136,-0.39764 0.40039,-0.55664 0.0273,-0.039 0.0518,-0.0803 0.084,-0.11523 0.1788,-0.19432 0.45471,-0.31794 0.66992,-0.47071 0.0824,-0.0585 0.16529,-0.11586 0.24804,-0.17382 0.15713,0.21823 0.35665,0.41169 0.47266,0.65429 0.0222,0.0463 -0.0643,0.081 -0.10156,0.11719 h -0.002 c 0.006,0.13679 -0.0799,0.29806 -0.22852,0.45312 0.0559,0.0285 0.10873,0.061 0.1543,0.10547 0.0987,0.0964 -0.0264,0.27476 -0.0391,0.41211 -0.0142,0.15322 -0.0309,0.30741 -0.041,0.46094 -0.006,0.0946 -0.0164,0.22999 -0.0215,0.35742 0.12872,0.001 0.28491,0.0312 0.51758,0.13477 0.0973,0.0433 0.0642,0.206 0.0645,0.3125 7.4e-4,0.2265 -0.0307,0.45348 -0.0625,0.67773 -0.0319,0.22506 -0.0754,0.44818 -0.11524,0.67188 h 77.69336 c 0.0179,-0.13968 0.0352,-0.2797 0.041,-0.42188 0.006,-0.14695 -0.004,-0.29238 -0.008,-0.43945 -10e-4,-0.0208 -0.003,-0.0417 -0.004,-0.0625 -0.005,-0.0436 -0.0138,-0.0919 -0.008,-0.12695 -0.005,-0.0756 -0.01,-0.15094 -0.0137,-0.22657 0.13197,-0.0117 0.26428,-0.0381 0.39649,-0.0586 0.0381,-0.18634 0.074,-0.37325 0.125,-0.55664 0.0506,-0.18175 0.1305,-0.354 0.18945,-0.5332 0.0608,-0.18482 0.11308,-0.37254 0.16992,-0.5586 0.61777,0.0906 1.24194,0.14574 1.85352,0.27149 0.0357,0.007 -3e-5,0.0729 0,0.10937 4e-5,0.0785 -5e-5,0.1578 0,0.23633 2e-5,0.0469 -2e-5,0.0937 0,0.14063 0.0815,-0.0997 0.14129,-0.18828 0.25976,-0.32618 0.12307,-0.14325 0.19222,-0.44838 0.37891,-0.41992 0.0309,0.005 0.0384,0.009 0.0684,0.0137 0.15227,-0.1998 0.28268,-0.22929 0.54492,0.10352 1.49508,0.28139 1.30615,0.51716 0.70899,1.38281 -0.39604,0.49405 -0.7979,0.98327 -1.19922,1.47266 h 10.83398 c 0.11594,-0.13523 0.20211,-0.18221 0.2832,-0.33008 0.0427,-0.0779 0.0632,-0.1653 0.0957,-0.24805 0.11975,-0.32984 0.37015,-0.58055 0.54687,-0.875 0.0272,-0.0454 0.0477,-0.0937 0.0723,-0.14062 0.0487,-0.0777 0.0978,-0.1547 0.14648,-0.23242 0.0513,-0.0642 0.10298,-0.12915 0.1543,-0.19336 -0.003,-0.0121 -0.008,-0.0258 -0.006,-0.0312 0.0285,-0.0792 0.0554,-0.16046 0.0957,-0.23438 0.15947,-0.29276 0.28993,-0.46342 0.47461,-0.72266 0.132,-0.20372 0.26735,-0.40445 0.40039,-0.60742 -1.13714,-0.68216 -0.74659,-1.89296 0.26172,-1.82617 V 525.9043 Z m 15.27734,35.51953 c -0.002,0.003 -0.003,0.004 -0.004,0.006 -0.001,0.004 0.001,0.008 0,0.0137 l 0.002,0.002 c 3e-4,-0.007 0.002,-0.0143 0.002,-0.0215 z" />
  <path
     id="rect8277"
     style="fill:#ffffff;fill-opacity:1"
     d="m 221.8457,567.42773 v 0.44727 c 0.029,0.0619 0.0548,0.12979 0.082,0.21094 0.0319,0.0949 -0.0601,0.21042 0,0.30078 7e-5,0.1908 -1.8e-4,0.38147 0,0.57226 0.0429,0.069 0.0918,0.13482 0.11915,0.21094 0.0542,0.15112 0.0607,0.36325 0.0273,0.52539 -9.3e-4,0.004 -0.0137,-0.008 -0.0137,-0.004 1.1e-4,0.019 0.009,0.0362 0.0137,0.0547 0.0546,0.17222 0.0803,0.23244 0.10351,0.4336 0.0187,0.16127 0.002,0.32649 0,0.49023 -0.0109,-0.0357 -0.016,-0.062 0.0508,0.1543 0.003,0.0809 0.0321,0.16496 0.01,0.24219 -0.0177,0.0566 -0.0403,0.0837 -0.0606,0.125 -2.6e-4,0.1569 6.8e-4,0.3138 -0.002,0.4707 -1e-4,0.17536 0.002,0.35012 0.008,0.52539 3.2e-4,0.009 -6.9e-4,0.0896 0.002,0.16797 0.0274,0.0309 0.0725,0.0689 0.0781,0.0859 0.006,0.0195 -0.0376,-0.016 -0.0566,-0.0234 -0.004,8.6e-4 -0.0167,0.003 -0.0215,0.004 0.001,0.0627 0.006,0.12465 0.002,0.13867 0.47579,0.24723 0.49674,0.39536 0.33398,0.47851 0.0187,0.0751 0.036,0.14951 0.0547,0.22461 0.0219,0.0877 0.0274,0.16494 0.0274,0.23828 h 5.27539 c -0.0572,-0.0487 -0.10888,-0.10728 -0.13868,-0.17578 -0.0447,-0.10271 -0.0479,-0.2188 -0.0723,-0.32812 0.0117,-0.0527 0.009,-0.0348 0.0137,-0.0586 0.0352,0.046 0.12078,0.15217 -0.0508,-0.082 -0.14037,-0.27736 -0.14527,-0.42748 -0.125,-0.71484 0.002,-0.0352 0.0123,-0.0951 0.01,-0.13281 -0.0166,-0.14404 -0.0899,-0.26435 -0.0449,-0.41797 0.0643,-0.20705 0.0436,-0.19718 0.15625,-0.36914 0.008,-0.0126 0.0216,-0.0264 0.0312,-0.0332 -0.002,-0.11073 -0.003,-0.21739 -0.0137,-0.11914 0.0111,-0.20529 -0.003,-0.18899 0.0488,-0.36719 0.0372,-0.12819 0.0431,-0.16141 0.0996,-0.0781 -0.0263,-0.0566 -0.0262,-0.10121 -0.0391,-0.15039 -0.0788,-0.22312 -0.11518,-0.44946 -0.0859,-0.68945 0.007,-0.14754 -0.002,-0.29562 -0.002,-0.44336 7.6e-4,-0.12445 0.003,-0.24859 0.002,-0.37305 -9.6e-4,-0.39698 0.19149,-0.59285 0.39062,-0.60547 0.0574,-0.17549 0.1202,-0.36469 0.13672,-0.41992 0.0305,-0.10182 0.0517,-0.20623 0.0801,-0.30859 -0.0263,-0.0517 -0.007,-0.12718 0.0176,-0.20704 z m 12.04688,0 c 0.0308,0.22958 -0.0225,-0.15327 0.041,0.20704 0.014,0.0792 0.0235,0.16062 0.0352,0.24023 -0.006,-0.0162 -0.009,-0.0638 -0.0176,-0.0488 -0.0409,0.0724 0.24372,0.18927 0.0703,0.23828 0.0234,0.10384 0.0539,0.20732 0.0703,0.3125 0.0145,0.0931 0.0142,0.18732 0.0215,0.28125 -0.003,0.0328 -0.0101,0.0669 -0.008,0.0996 0.016,0.12681 0.11433,0.35547 0.14453,0.45117 0.0215,0.0683 0.0384,0.13785 0.0566,0.20704 0.15175,-0.0797 0.36347,0.0404 0.67969,0.2207 0.0366,0.0208 0.0149,0.31856 0.0117,0.37695 -0.0164,0.21896 -0.01,0.439 -0.008,0.65821 -0.0896,0.28458 -0.15116,0.4313 -0.41601,0.50195 -0.0379,0.0444 -0.0811,0.0969 -0.0957,0.10742 -0.0314,0.0226 -0.0908,0.0537 -0.14454,0.084 -0.006,0.03 -0.007,0.0613 -0.0176,0.0898 -0.0269,0.0704 -0.0834,0.12465 -0.125,0.1875 -0.074,0.0704 -0.13916,0.14873 -0.20899,0.22265 -0.0337,0.0983 -0.0663,0.19702 -0.0996,0.29493 -0.0871,0.35046 -0.18388,0.7033 -0.375,1.01367 -0.035,0.0569 -0.0524,0.16089 -0.11914,0.16211 -0.0195,3.9e-4 -0.0406,-0.002 -0.0605,-0.002 -0.0196,0.0378 -0.0344,0.0777 -0.0547,0.11524 -0.008,0.0175 -0.0153,0.0353 -0.0234,0.0527 h 13.95508 c 0.022,-0.31925 0.0623,-0.62459 0.0898,-0.81836 0.0395,-0.27822 0.082,-0.55599 0.12305,-0.83398 0.005,-0.0583 0.0105,-0.12048 0.0156,-0.17969 -0.0496,-0.032 -0.0954,-0.0682 -0.14257,-0.10351 -0.0607,-0.0157 -0.12217,-0.0271 -0.18164,-0.0469 -0.75588,-0.25163 -1.31003,-0.75264 -1.41602,-1.56641 -0.0318,-0.34684 -0.0596,-0.45336 -0.004,-0.83203 0.0431,-0.29221 0.10363,-0.3742 0.19727,-0.62304 0.21756,-0.5781 -0.004,-0.0703 0.35351,-0.8125 0.0732,-0.0859 0.14699,-0.17087 0.21875,-0.25782 z m 22.64648,0 c 8.8e-4,0.0557 -0.007,0.1121 -0.008,0.16797 0.0215,2e-5 0.0454,-0.007 0.0664,-0.006 0.25048,0.0189 0.45412,0.15118 0.57031,0.36133 0.087,-0.15786 0.16472,-0.3188 0.26562,-0.52344 z m 3.63867,0 c 0.36026,0.16075 0.71725,0.32962 1.07032,0.50586 0.11707,-0.2303 0.2544,-0.38994 0.39843,-0.50586 z m 2.47071,0 c 0.23919,0.22166 0.36986,0.60939 0.28711,1.08594 0.17449,0.003 0.34982,0.002 0.60547,0.006 1.07933,-0.0114 2.15885,-0.002 3.23828,-0.008 v -1.08399 z m -0.99414,0.58204 c -0.003,0.008 -0.005,0.0119 -0.008,0.0195 h 0.002 c 0.007,5.7e-4 0.008,-0.0261 0.006,-0.0195 z m -26.72266,1.82031 c -0.003,0.0259 -0.004,0.0521 -0.006,0.0781 0.001,-0.008 0.008,-0.0111 0.01,-0.0176 0.005,-0.0198 -1e-4,-0.0808 -0.004,-0.0605 z m 21.80469,2.02539 c -0.001,0.003 -0.003,0.004 -0.004,0.006 -0.002,0.006 -0.002,0.0109 -0.004,0.0195 -2.2e-4,-3.2e-4 0.004,-0.005 0.004,-0.006 0.001,-0.007 0.003,-0.013 0.004,-0.0195 z m 4.63672,0.16406 c -0.0591,0.0817 -0.11484,0.16553 -0.17188,0.24805 -0.42746,0.61841 -0.25181,0.36633 -0.69922,0.99609 -0.0503,0.0821 -0.0944,0.16006 -0.14257,0.23828 h 6.41992 v -1.48242 z m -31.60938,0.16016 c -0.14726,0.21341 -0.27857,0.4367 -0.41601,0.65625 0.0286,8.3e-4 0.0574,0.004 0.0859,0.004 0.11337,-0.002 0.22662,-5.5e-4 0.33985,-0.002 -0.0439,-0.053 -0.088,-0.10729 -0.14063,-0.14844 -0.0272,-0.0212 -0.0304,0.11222 -0.0547,0.0879 -0.025,-0.025 0.0309,-0.0622 0.0469,-0.0937 0.0329,-0.0969 0.0755,-0.19161 0.0996,-0.29101 0.017,-0.0702 0.0267,-0.14172 0.0391,-0.21289 z m 28.61524,0.59961 c -0.0686,0.12102 -0.14744,0.23709 -0.21875,0.34375 -0.0451,0.0764 -0.0887,0.15268 -0.13477,0.22851 -0.0234,0.0385 -0.0458,0.0769 -0.0723,0.11328 -0.006,0.008 -0.0217,0.0101 -0.0254,0.0195 -0.002,0.006 -0.004,0.0118 -0.006,0.0176 h 0.13671 c 0.0547,-0.10615 0.11804,-0.21448 0.14063,-0.31054 0.0635,-0.12999 0.12573,-0.26072 0.18945,-0.39063 -0.003,-0.007 -0.007,-0.0143 -0.01,-0.0215 z m -7.56446,0.23047 c -0.0642,0.0196 -0.0991,0.0282 -0.01,0.0137 0.001,-0.001 0.008,-0.0119 0.01,-0.0137 z m -28.35937,0.0469 c -0.0806,0.0297 -0.1753,0.0525 -0.27344,0.0664 0.0303,0.0127 0.0452,0.022 0.0781,0.0351 0.12695,0.0507 0.17243,-0.0153 0.19531,-0.10156 z m 32.39648,0.19922 c -0.10167,0.0606 -0.21639,0.14788 -0.33789,0.24609 h 0.69727 c 3.7e-4,-0.006 -2.9e-4,-0.008 0,-0.0137 -0.0929,-0.0543 -0.18361,-0.0905 -0.2793,-0.16601 -0.0272,-0.0215 -0.053,-0.0448 -0.0801,-0.0664 z" />
  <rect
     style="fill:#ffffff;fill-opacity:1"
     id="rect8279"
     width="2.7460203"
     height="5.6584659"
     x="238.4877"
     y="571.58826" />
  <path
     style="fill:#000000;fill-opacity:1"
     id="path9011"
     d="m 198.07434,530.45119 c 4.38216,0.0257 8.76442,0.0162 13.14663,0.0104 3.88219,-0.004 7.76439,-10e-4 11.64659,0.002 4.27894,0.007 8.55788,0.001 12.83682,-0.005 3.37774,0.002 6.75547,-0.005 10.1332,-0.002 3.40613,0.003 6.81226,0.002 10.21839,-7.5e-4 3.21427,-0.006 6.42853,2.8e-4 9.6428,0.005 3.89063,0.007 7.78127,-2.4e-4 11.6719,-0.004 3.02802,-0.005 6.05604,-0.004 9.08405,10e-4 3.29112,0.002 6.58224,-0.002 9.87336,-0.003 3.11223,0.004 6.22448,10e-4 9.33672,-3.2e-4 2.7974,-5.1e-4 5.59481,-0.004 8.39222,5.3e-4 4.33377,0.009 8.66754,0.0125 13.00132,0.0148 4.47898,-0.002 8.95797,-0.003 13.43695,-0.008 2.81299,-0.005 5.62599,-0.007 8.43898,-0.0137 1.55811,-5.4e-4 3.11621,-0.003 4.67432,-0.001 0,0 -4.27719,3.10756 -4.27719,3.10756 v 0 c -1.55685,10e-4 -3.11369,-8.2e-4 -4.67054,-10e-4 -2.80038,-0.007 -5.60077,-0.009 -8.40116,-0.0137 -4.47169,-0.005 -8.9434,-0.006 -13.4151,-0.008 -4.34738,0.002 -8.69476,0.006 -13.04214,0.0148 -2.79789,0.004 -5.59579,10e-4 -8.39369,5.3e-4 -3.11194,-10e-4 -6.22388,-0.004 -9.33583,-3.2e-4 -3.28791,-0.002 -6.57583,-0.006 -9.86374,-0.003 -3.02896,0.005 -6.05791,0.006 -9.08687,10e-4 -3.88662,-0.004 -7.77324,-0.0112 -11.65985,-0.004 -3.21913,0.005 -6.43827,0.0109 -9.65741,0.005 -3.40544,-0.002 -6.81088,-0.004 -10.21632,-7.5e-4 -3.37545,0.003 -6.7509,-0.005 -10.12635,-0.002 -4.27478,-0.006 -8.54956,-0.0116 -12.82434,-0.005 -3.884,0.003 -7.768,0.006 -11.652,0.002 -4.39174,-0.006 -8.78354,-0.0152 -13.17523,0.0104 0,0 4.26351,-3.09762 4.26351,-3.09762 z"
     inkscape:connector-curvature="0" />
  <path
     style="fill:#800000;fill-opacity:1;stroke-width:1.33333337"
     d="M 141.90039 76.267578 L 141.90039 133.48828 C 141.90039 178.01849 142.26941 190.85946 143.56641 191.38281 C 144.48307 191.75269 172.08372 192.10421 204.90039 192.16211 L 264.56641 192.26758 L 264.56641 134.26758 L 264.56641 76.267578 L 203.23242 76.267578 L 141.90039 76.267578 z M 279.23242 76.267578 L 279.23242 134.26758 L 279.23242 192.26758 L 340.56641 192.26758 L 401.90039 192.26758 L 401.90039 134.26758 L 401.90039 76.267578 L 340.56641 76.267578 L 279.23242 76.267578 z "
     id="T1" />
  <path
     style="fill:#ffaaaa;fill-opacity:1;stroke-width:1.33333337"
     d="M 279.23242 196.16211 L 279.23242 254.88086 L 279.23242 313.59961 L 340.56641 313.59961 L 401.90039 313.59961 L 401.90039 256.3457 C 401.90039 212.00617 401.52313 198.84709 400.23242 198.01172 C 399.31576 197.41844 371.71706 196.76069 338.90039 196.54883 L 279.23242 196.16211 z M 141.90039 196.26758 L 141.90039 254.93359 L 141.90039 313.59961 L 203.23242 313.59961 L 264.56641 313.59961 L 264.56641 254.93359 L 264.56641 196.26758 L 203.23242 196.26758 L 141.90039 196.26758 z "
     id="T2" />
  <path
     style="fill:#6c5353;fill-opacity:1;stroke-width:1.33333337"
     d="M 141.90039 317.59961 L 141.90039 376.93359 L 141.90039 436.26758 L 203.23242 436.26758 L 264.56641 436.26758 L 264.56641 376.93359 L 264.56641 317.59961 L 203.23242 317.59961 L 141.90039 317.59961 z M 279.23242 317.59961 L 279.23242 376.93359 L 279.23242 436.26758 L 340.56641 436.26758 L 401.90039 436.26758 L 401.90039 376.93359 L 401.90039 317.59961 L 340.56641 317.59961 L 279.23242 317.59961 z "
     id="T3"
     inkscape:label="#T3" />
  <path
     style="fill:#ff7f2a;fill-opacity:1;stroke-width:1.33333337"
     d="M 188.88608,517.64791 C 183.68844,508.75557 181.9,504.36089 181.9,500.48125 c 0,-2.86802 -0.36857,-7.05745 -0.81905,-9.30985 -0.7129,-3.56447 -1.44736,-4.14772 -5.66667,-4.5 -4.72927,-0.39485 -5.16327,-0.92555 -17.77707,-21.73807 -7.1112,-11.73333 -12.9612,-21.78333 -13,-22.33333 -0.0388,-0.55 26.92946,-1 59.92946,-1 h 60 v 38.66667 38.66666 H 271.9 279.23333 V 480.26667 441.6 h 60.14266 c 50.45444,0 60.02942,0.29504 59.4398,1.83158 -0.55451,1.44504 -43.42224,74.13133 -49.44288,83.83509 -1.35134,2.17801 -6.5084,2.33333 -77.47423,2.33333 h -76.02653 z m 57.43491,-12.2657 c 6.64141,-3.53724 7.96905,-9.23167 3.48224,-14.93573 -2.07077,-2.63255 -3.96616,-3.51315 -7.56168,-3.51315 -9.78295,0 -12.9772,8.90282 -5.77745,16.10257 4.31447,4.31447 5.59101,4.61833 9.85689,2.34631 z m 108.34152,-3.34496 c 3.5457,-3.82588 5.0873,-8.08432 4.34357,-11.99846 -0.72173,-3.79838 -12.04609,-4.16544 -15.70256,-0.50898 -3.09415,3.09415 -3.38555,5.81142 -1.27308,11.87123 1.19569,3.42998 2.18408,4.19896 5.39699,4.19896 2.5503,0 5.09417,-1.25267 7.23508,-3.56275 z"
     id="T4"
     inkscape:connector-curvature="0"
     inkscape:label="#T4" />
  <path
     style="fill:#e9c6af;fill-opacity:1;stroke-width:1.33333337"
     d="m 231.62619,589.26667 c -2.53461,-3.33413 -8.42899,-14.23861 -8.25534,-15.2722 0.0981,-0.58363 0.098,-2.26114 -4e-5,-3.7278 -0.13533,-2.02387 -0.45448,-2.23082 -1.32401,-0.85854 -0.81411,1.28481 -4.2813,-3.40298 -11.97959,-16.1969 -5.95863,-9.90277 -10.83388,-18.36643 -10.83388,-18.80813 0,-0.44171 32.7642,-0.8031 72.80932,-0.8031 66.59568,0 72.73852,0.1845 71.9797,2.16195 -0.45628,1.18908 -6.62843,11.83908 -13.71587,23.66667 -7.08744,11.82759 -13.99231,23.75471 -15.34415,26.50471 l -2.4579,5 h -39.80562 c -30.27988,0 -40.10882,-0.39884 -41.07262,-1.66666 z M 228.14415,569.35 c -0.42563,-1.06364 -0.74158,-0.7477 -0.80555,0.80556 -0.0579,1.40555 0.25723,2.19305 0.70029,1.75 0.44305,-0.44306 0.49042,-1.59306 0.10527,-2.55556 z m 19.08918,1.58333 c 0,-0.73333 -0.63541,-1.33333 -1.41202,-1.33333 -0.77661,0 -1.0412,0.6 -0.58798,1.33333 0.45323,0.73334 1.08864,1.33334 1.41203,1.33334 0.32338,0 0.58797,-0.6 0.58797,-1.33334 z"
     id="T5"
     inkscape:connector-curvature="0" />
  <path
     style="fill:#917c6f;fill-opacity:1;stroke-width:1.33333337"
     d="m 233.9,644.93333 v -48.66666 h 38 38 V 644.93333 693.6 h -38 -38 z"
     id="T6"
     inkscape:connector-curvature="0"
     inkscape:label="#T6" />
  <path
     style="fill:#ffd42a;fill-opacity:1;stroke-width:1.33333337"
     d="M 71.232422 450.93359 L 71.232422 630.93359 L 71.232422 810.93359 L 165.23242 810.93359 L 259.23242 810.93359 L 259.23242 779.50391 L 259.23242 748.07617 L 222.90039 748.58789 L 186.56641 749.10156 L 162.19727 755.48047 C 139.13664 761.51706 137.65309 761.74433 134.55273 759.71289 C 128.14622 755.51518 128.73488 745.15318 135.56641 741.87891 C 146.35217 736.70943 192.56747 726.83058 270.56641 713.02148 C 297.69974 708.21774 325.59974 703.1331 332.56641 701.72266 L 345.23242 699.1582 L 311.64453 699.04492 C 278.70721 698.93472 277.55551 699.02561 252.31055 703.64453 C 162.7811 720.02517 134.16488 727.75982 126.13672 737.74805 C 123.70939 740.76801 121.95263 741.59961 118.00977 741.59961 C 111.68365 741.59961 108.30078 738.13256 108.30078 731.65039 C 108.30078 719.71216 119.44492 712.62424 154.54492 702.23828 L 165.23242 699.07422 L 147.99414 699.00391 L 130.75586 698.93359 L 126.48242 703.59961 C 120.26493 710.38752 112.86972 709.96601 109.06445 702.60742 C 107.18529 698.97353 107.19533 698.08252 109.16992 692.91211 C 111.52455 686.7466 116.82813 682.33237 127.56641 677.59961 C 133.58318 674.94779 133.90039 674.54459 133.90039 669.53711 C 133.90039 666.63809 133.42402 664.26758 132.8418 664.26758 C 132.25957 664.26758 129.50813 666.66628 126.72852 669.59961 C 120.67353 675.98944 115.92355 676.59107 111.20312 671.56641 C 107.45681 667.57863 107.17603 660.96169 110.53711 655.83203 C 112.91308 652.20585 123.14857 645.17851 128.31055 643.62891 C 131.91075 642.54817 134.06151 637.8359 132.92969 633.50781 C 132.15856 630.55902 132.00081 630.61771 128.01562 635.3418 C 122.49864 641.88172 116.98427 642.97887 111.84766 638.56055 C 108.8628 635.99307 108.05809 634.21016 108.16602 630.40234 C 108.37368 623.07654 113.74584 617.04157 124.59961 611.94336 C 133.61074 607.71065 133.84735 607.47222 133.87305 602.59961 C 133.88758 599.84961 133.31516 597.59961 132.59961 597.59961 C 131.88406 597.59961 129.3864 599.70091 127.05078 602.26758 C 123.73783 605.90827 121.7767 606.93359 118.125 606.93359 C 111.54831 606.93359 108.56641 603.78117 108.56641 596.82812 C 108.56641 589.18618 113.01723 584.08386 124.89648 578.10156 C 133.92639 573.55418 134.172 573.29552 133.36719 569.27148 C 132.91129 566.99193 132.24565 564.83354 131.88672 564.47461 C 131.52779 564.11568 128.92625 566.32346 126.10547 569.37891 C 123.28469 572.43437 120.25349 574.93359 119.37109 574.93359 C 115.63587 574.93359 110.08509 570.71726 108.74023 566.85938 C 105.91151 558.74492 112.4041 550.25464 126.85352 543.16797 C 133.91065 539.70684 134.6302 538.45955 133.02734 532.47266 C 132.21229 529.42833 132.05886 529.49027 127.19922 534.80664 C 121.32787 541.2298 115.99205 542.07574 111.66406 537.26758 C 107.66904 532.82932 107.051 529.9374 109.08203 525.19141 C 111.42523 519.71595 116.85638 514.76734 125.23242 510.47461 C 131.15472 507.43944 131.48969 507.05129 128.23242 506.99609 C 124.56669 506.93403 124.56641 506.93058 124.56641 497.01758 L 124.56641 487.10156 L 128.90039 486.68359 L 133.23242 486.26758 L 133.60547 468.59961 L 133.97656 450.93359 L 102.60547 450.93359 L 71.232422 450.93359 z M 409.90039 450.93359 L 409.90039 474.07031 C 409.90039 486.79607 410.285 500.89546 410.75586 505.40039 L 411.61133 513.58984 L 417.39258 508.26172 C 420.57199 505.33103 424.05874 502.93359 425.14062 502.93359 C 429.10231 502.93359 433.76003 506.04159 435.27344 509.69531 C 438.7333 518.04812 431.24058 527.91188 416.93359 533.8418 C 409.96143 536.73159 409.90039 536.80837 409.90039 542.58789 C 409.90039 548.23702 409.98722 548.35755 412.68945 546.46484 C 414.22333 545.39047 416.38343 543.21883 417.49023 541.63867 C 422.13462 535.00787 432.27 535.78091 435.25781 542.99414 C 438.58004 551.01469 433.28377 558.87382 419.89844 565.78516 C 410.97825 570.39099 409.06201 572.85875 410.61133 577.74023 C 411.45704 580.4048 411.75028 580.30383 416.42383 575.74023 C 422.74732 569.5655 429.56386 569.05843 433.80273 574.44727 C 435.32262 576.3795 436.5655 579.2282 436.5625 580.7793 C 436.55063 587.49642 426.09559 598.0948 415.81445 601.8125 C 412.11788 603.14921 411.24266 604.2693 410.51172 608.5957 C 410.0301 611.44637 409.95792 614.10245 410.35156 614.49609 C 410.7452 614.88973 413.51507 612.71334 416.50781 609.66016 C 421.20186 604.87128 422.61516 604.16576 426.79297 604.52148 C 430.18973 604.81069 432.42214 605.99275 434.27148 608.48047 C 439.93958 616.10522 433.62037 626.3621 418.625 633.87695 C 414.1931 636.09798 410.34558 638.11772 410.07422 638.36328 C 409.80286 638.60884 409.99432 641.01344 410.5 643.70898 L 411.41797 648.61133 L 416.70898 643.10547 C 422.69682 636.8739 427.58486 635.96467 432.72266 640.125 C 435.04158 642.00276 435.83984 644.00164 435.83984 647.93359 C 435.83984 655.62065 430.86555 661.37293 419.39453 666.94922 C 409.89298 671.56813 409.13151 672.59529 410.74609 678.62109 C 411.53115 681.55104 411.73181 681.47982 417.36523 676.28711 C 423.5722 670.56572 425.22998 670.07742 430.41406 672.43945 C 438.19577 675.98503 437.70733 687.47567 429.47852 694.43555 C 418.44456 703.76801 388.98103 712.31225 329.23242 723.50781 C 275.64715 733.5485 277.21285 732.87025 306.56641 733.32422 C 338.22557 733.81385 351.7304 732.37769 378.20117 725.70508 C 403.00446 719.4528 409.67186 716.71181 417.40039 709.58789 C 424.27695 703.2493 427.45826 702.9524 432.66992 708.16406 C 437.20085 712.69499 437.56653 716.60915 434.00781 722.44531 C 428.35733 731.71188 416.75497 737.21514 386.56641 744.94336 C 372.34497 748.58402 329.44616 757.48942 310.04297 760.83008 C 304.32248 761.81498 302.09961 759.98674 301.05078 753.42773 L 300.22656 748.26758 L 292.39648 748.26758 L 284.56641 748.26758 L 284.56641 779.59961 L 284.56641 810.93359 L 378.56641 810.93359 L 472.56641 810.93359 L 472.56641 630.93359 L 472.56641 450.93359 L 441.23242 450.93359 L 409.90039 450.93359 z M 425.18359 739.15234 C 425.56472 739.1551 425.95863 739.17248 426.36523 739.20312 C 430.27457 739.49773 432.32902 740.53324 434.32617 743.21875 C 436.72148 746.43963 436.84152 747.427 435.41992 752.17188 C 434.54126 755.10458 432.50678 758.4262 430.89844 759.55273 C 426.62261 762.54764 422.24137 762.06363 418.34375 758.16602 C 415.4519 755.27416 415.02247 753.88674 415.625 749.39453 C 416.58527 742.23511 419.4667 739.11095 425.18359 739.15234 z "
     id="T7"
     inkscape:label="#T6" />
  <path
     style="fill:#ff00ff;fill-opacity:1;stroke-width:1.33333337"
     d="m 281.01494,809.6 c 0,-5.5 0.23536,-7.75 0.52302,-5 0.28766,2.75 0.28766,7.25 0,10 -0.28766,2.75 -0.52302,0.5 -0.52302,-5 z"
     id="path9035"
     inkscape:connector-curvature="0" />
  <path
     style="fill:#0000ff;fill-opacity:1;stroke-width:1.33333337"
     d=""
     id="path9068"
     inkscape:connector-curvature="0" />
  <path
     style="fill:#ac9d93;fill-opacity:1;stroke-width:1.33333337"
     d="M 83.900391 405.59961 C 79.592789 405.59961 79.369599 410.15448 83.464844 414.51367 C 85.059341 416.21093 86.559992 417.59961 86.798828 417.59961 C 87.037665 417.59961 87.232422 414.89961 87.232422 411.59961 C 87.232422 406.0885 86.962119 405.59961 83.900391 405.59961 z M 109.23242 405.59961 C 105.91079 405.59961 105.90039 405.64535 105.90039 418.26758 C 105.90039 430.88984 105.91079 430.93359 109.23242 430.93359 C 112.55406 430.93359 112.56641 430.8898 112.56641 418.26758 C 112.56641 405.64531 112.55406 405.59961 109.23242 405.59961 z M 434.56641 405.59961 C 431.24477 405.59961 431.23242 405.64535 431.23242 418.26758 C 431.23242 430.88984 431.24477 430.93359 434.56641 430.93359 C 437.88804 430.93359 437.90039 430.8898 437.90039 418.26758 C 437.90039 405.64531 437.88804 405.59961 434.56641 405.59961 z M 461.23242 405.59961 C 457.01329 405.59961 456.82217 408.94869 460.79883 413.18164 C 462.39332 414.87891 463.89397 416.26758 464.13281 416.26758 C 464.37165 416.26758 464.56641 413.86693 464.56641 410.93359 C 464.56641 406.13359 464.23242 405.59961 461.23242 405.59961 z M 81.232422 416.93359 L 80.835938 426.11133 C 80.486694 434.15879 80.814581 435.69289 83.501953 438.5625 L 86.566406 441.83594 L 86.964844 433.68164 C 87.295125 426.91308 86.842538 424.79674 84.298828 421.23047 L 81.232422 416.93359 z M 457.90039 417.13477 L 457.90039 425.5957 C 457.90039 431.55291 458.54448 434.76821 460.07812 436.46289 C 463.29082 440.01287 464.56641 438.29539 464.56641 430.41992 C 464.56641 424.6535 463.96965 422.83906 461.23242 420.26758 L 457.90039 417.13477 z M 138.11523 448.93359 L 138.01953 460.26758 C 137.96654 466.50091 138.29942 474.73599 138.75977 478.56836 L 139.59766 485.53516 L 144.54297 481.61914 C 153.96366 474.15782 154.01136 473.57222 146.04492 463.0625 C 144.15334 460.56704 141.59607 456.36639 140.36133 453.72852 L 138.11523 448.93359 z M 403.90039 463.85547 L 395.37695 472.97852 C 385.39013 483.66925 381.9856 488.8276 356.23242 532.26758 C 345.58096 550.23424 334.69784 568.49861 332.04883 572.85547 C 329.39982 577.21232 327.23242 581.28433 327.23242 581.9043 C 327.23242 582.52427 330.76487 579.25861 335.08008 574.64844 C 339.3953 570.03828 348.84004 560.56628 356.06836 553.59961 C 363.29669 546.63294 377.4649 532.86032 387.55469 522.99414 L 405.90039 505.05664 L 405.73438 493.66211 C 405.64328 487.39496 405.19329 478.12359 404.73438 473.06055 L 403.90039 463.85547 z M 154.48633 477.50781 L 150.61133 481.55469 L 146.73438 485.59961 L 152.98438 485.59961 C 159.86139 485.59961 160.28491 485.04395 156.83008 480.55469 L 154.48633 477.50781 z M 131.23242 494.93359 C 129.75094 494.93359 128.56641 495.82248 128.56641 496.93359 C 128.56641 498.0447 129.75094 498.93359 131.23242 498.93359 C 132.7139 498.93359 133.90039 498.0447 133.90039 496.93359 C 133.90039 495.82248 132.7139 494.93359 131.23242 494.93359 z M 144.81445 495.10352 C 139.11786 495.12079 137.90039 495.58834 137.90039 496.88867 C 137.90039 498.60358 140.28595 498.93359 152.67773 498.93359 C 163.90595 498.93359 167.32245 498.53392 166.90234 497.26758 C 166.51697 496.10595 162.03938 495.48446 152.125 495.2207 C 149.11016 495.1405 146.71332 495.09776 144.81445 495.10352 z M 137.90039 506.93359 L 137.90039 519.37695 C 137.90039 526.22139 138.28466 532.20652 138.75391 532.67578 C 139.91573 533.83759 147.37582 527.68572 158.53125 516.36719 L 167.82812 506.93359 L 152.86328 506.93359 L 137.90039 506.93359 z M 172.20117 508.26758 C 171.43347 508.26758 163.40029 515.58549 154.35156 524.53125 L 137.90039 540.79688 L 137.90039 562.18555 L 137.90039 583.57422 L 163.19922 558.30078 C 186.6458 534.87856 188.37058 532.82962 186.75586 530.31445 C 185.79759 528.82181 182.44457 523.25026 179.30469 517.93359 C 176.16481 512.61693 172.96886 508.26758 172.20117 508.26758 z M 426.00195 508.82617 C 425.2958 508.80831 424.56889 509.0448 423.90039 509.59961 C 421.80058 511.3423 421.23886 515.16074 422.8457 516.76758 C 424.72751 518.64939 429.23656 516.91011 429.63086 514.15039 C 430.04875 511.22553 428.12042 508.87976 426.00195 508.82617 z M 405.90039 510.29492 L 361.90039 554.4707 L 317.90039 598.64844 L 317.90039 619.11719 L 317.90039 639.58398 L 361.90039 595.59961 L 405.90039 551.61523 L 405.90039 530.95508 L 405.90039 510.29492 z M 133.22852 512.68164 C 131.346 512.74427 120.56641 517.55407 120.56641 518.43164 C 120.56641 518.72788 122.49619 520.69451 124.85352 522.80078 C 127.21085 524.90706 129.84804 526.35801 130.71484 526.02539 C 132.27787 525.4256 134.67101 513.92687 133.48047 512.73633 C 133.43987 512.69573 133.35402 512.67747 133.22852 512.68164 z M 414.45703 517.81641 C 411.78023 517.77823 409.90039 521.34675 409.90039 527.58984 L 409.90039 532.42383 L 418.19922 528.01172 C 424.47482 524.67566 425.80903 523.49981 423.67188 523.19141 C 422.1175 522.96711 419.79023 521.61711 418.5 520.19141 C 417.05608 518.5959 415.67376 517.83376 414.45703 517.81641 z M 117.93164 525.59961 C 114.61645 525.59961 113.45372 527.63937 114.4668 531.67578 C 115.43025 535.51449 119.78673 536.09058 121.7207 532.63477 C 123.41594 529.60554 121.25849 525.59961 117.93164 525.59961 z M 190.50391 537.75977 C 190.11799 537.37386 178.12452 548.72354 163.85156 562.98242 L 137.90039 588.9082 L 137.91797 609.58789 L 137.93555 630.26758 L 166.79688 601.26758 C 182.67083 585.31758 195.98004 572.26758 196.37305 572.26758 C 198.11335 572.26758 204.56641 564.88659 204.56641 562.89648 C 204.56641 561.07078 192.82235 540.07822 190.50391 537.75977 z M 425.90039 543.59961 C 422.14821 543.59961 420.7309 547.25004 423.28711 550.33008 C 424.17079 551.39485 425.34664 552.26758 425.90039 552.26758 C 427.79922 552.26758 430.11986 548.39527 429.6582 545.99805 C 429.36224 544.46129 428.01369 543.59961 425.90039 543.59961 z M 132.56641 545.55469 L 125.72852 549.02148 L 118.88867 552.48633 L 123.06055 555.02344 C 125.3553 556.41896 127.23242 558.16994 127.23242 558.91406 C 127.23242 560.50328 128.60739 560.62362 130.80078 559.22852 C 132.38732 558.21941 133.15156 554.08939 132.77344 548.57812 L 132.56641 545.55469 z M 414.9707 550.63672 C 414.2207 550.63311 413.5786 551.25343 412.46875 552.36328 C 409.85661 554.97543 409.24966 558.35527 410.70898 562.1582 C 411.72834 564.8146 412.05969 564.7754 418.72461 561.20703 L 424.21484 558.26758 L 419.62695 554.03125 C 417.07872 551.67864 415.93499 550.64136 414.9707 550.63672 z M 405.90039 556.94922 L 361.90039 600.93359 L 317.90039 644.91797 L 317.90039 666.25195 L 317.90039 687.58398 L 361.90039 643.59961 L 405.90039 599.61523 L 405.90039 578.28125 L 405.90039 556.94922 z M 117.85547 559.04688 C 117.13467 559.10924 116.42233 559.61087 115.5 560.5332 C 113.41115 562.62209 113.44888 566.52837 115.56641 567.38281 C 118.80551 568.68981 120.48743 568.23862 121.84961 565.69336 C 122.88949 563.75035 122.71435 562.60496 121.13477 561.02539 C 119.72175 559.61237 118.78221 558.96668 117.85547 559.04688 z M 207.23633 568.26758 C 206.62944 568.26758 191.11432 583.11758 172.75781 601.26758 L 139.38281 634.26758 L 138.86719 656.02148 L 138.34961 677.77539 L 154.21875 662.02148 C 162.94648 653.35643 182.01303 633.92485 196.58789 618.83984 L 223.08789 591.41211 L 215.71289 579.83984 C 211.65767 573.47485 207.84323 568.26758 207.23633 568.26758 z M 425.90039 576.70117 C 424.16971 576.70117 422.43914 577.83824 422.11719 580.11523 C 421.86969 581.86563 422.46839 583.80798 423.44922 584.42969 C 426.99954 586.68008 430.28981 584.40269 429.68359 580.11523 C 429.36164 577.83824 427.63108 576.70117 425.90039 576.70117 z M 131.94141 580.71484 C 131.07839 580.70267 128.38399 581.68562 125.44141 583.11523 L 119.32617 586.08594 L 123.2793 588.49023 C 125.45358 589.81249 127.23242 591.50198 127.23242 592.24609 C 127.23242 593.88639 128.6168 593.94927 131.0332 592.41797 C 132.70831 591.35644 133.62207 582.20996 132.19531 580.7832 C 132.1514 580.73929 132.06469 580.71658 131.94141 580.71484 z M 415.14453 584.65039 C 412.06292 584.4768 408.86678 590.91098 410.55078 596.2168 C 411.38327 598.83974 411.53552 598.82555 418.13672 595.48047 L 424.87305 592.06641 L 421.7207 589.89453 C 419.98626 588.69999 417.94995 586.9121 417.19727 585.92188 C 416.55967 585.08303 415.85567 584.69045 415.14453 584.65039 z M 117.66016 592.63477 C 117.14085 592.68936 116.6219 593.00024 115.97266 593.53906 C 113.84282 595.30667 113.21143 599.13331 114.78906 600.71094 C 116.36669 602.28857 120.19333 601.65718 121.96094 599.52734 C 123.39781 597.79601 123.21679 596.99022 120.86328 594.63672 C 119.39234 593.16578 118.52566 592.54377 117.66016 592.63477 z M 225.90039 595.61523 L 181.90039 639.59961 C 139.7407 681.74478 137.90039 683.79367 137.90039 688.5918 L 137.90039 693.59961 L 153.55469 693.59961 L 169.21094 693.59961 L 197.55469 665.27734 L 225.90039 636.95703 L 225.90039 616.28516 L 225.90039 595.61523 z M 405.90039 604.94922 L 364.54492 646.27539 L 323.18945 687.59961 L 330 688.31445 C 334.49624 688.78663 337.24355 689.8057 338.08789 691.31445 C 339.11101 693.14266 341.28792 693.59961 348.98047 693.59961 L 358.59375 693.59961 L 382.24805 669.91992 L 405.90039 646.24023 L 405.90039 625.59375 L 405.90039 604.94922 z M 425.91797 610.26758 C 422.11916 610.26758 420.72981 613.91686 423.33398 617.05469 C 426.01224 620.2818 429.23242 618.74913 429.23242 614.24805 C 429.23242 610.89559 428.70912 610.26758 425.91797 610.26758 z M 134.28516 612.10742 L 126.79102 615.7832 L 119.29688 619.45898 L 123.59766 623.14062 C 130.54387 629.08805 132.05864 628.34249 133.43555 618.29688 L 134.28516 612.10742 z M 415.76367 618.14062 C 414.30211 618.23857 411.29374 620.64366 410.60352 622.81836 C 410.15753 624.22344 410.17691 626.90447 410.64648 628.77539 L 411.5 632.17578 L 418.20508 628.7793 L 424.91211 625.38086 L 420.73828 622.84375 C 418.44353 621.44823 416.56641 619.67616 416.56641 618.90625 C 416.56641 618.33229 416.25086 618.10799 415.76367 618.14062 z M 117.07031 626.93359 C 114.63817 626.93359 113.90039 627.65802 113.90039 630.04492 C 113.90039 631.75604 114.30017 633.55604 114.78906 634.04492 C 116.34611 635.60198 120.18362 635.00218 121.90039 632.93359 C 124.12395 630.25437 121.45061 626.93359 117.07031 626.93359 z M 426.00195 643.49219 C 425.2958 643.47433 424.56889 643.71277 423.90039 644.26758 C 421.80058 646.01027 421.23886 649.82675 422.8457 651.43359 C 424.72751 653.3154 429.23656 651.57612 429.63086 648.81641 C 430.04875 645.89155 428.12042 643.54577 426.00195 643.49219 z M 223.90039 644.23438 L 199.24609 668.91797 L 174.59375 693.59961 L 190.0918 693.59961 C 204.4681 693.59961 205.64022 693.40731 206.28711 690.93359 C 206.87727 688.67683 208.10574 688.26758 214.2793 688.26758 C 218.86682 688.26758 222.14195 687.58089 223.10547 686.41992 C 224.14885 685.16272 224.52074 678.14005 224.26953 664.4043 L 223.90039 644.23438 z M 131.81641 647.27539 C 130.8883 647.28593 128.07634 648.53025 125.03516 650.3125 C 119.55532 653.5239 119.06533 654.14573 121.35352 654.99219 C 122.80482 655.52906 124.79439 656.93515 125.77539 658.11719 C 127.82213 660.58336 130.67311 660.91997 131.95508 658.8457 C 133.02125 657.12061 133.12659 648.38245 132.09375 647.34961 C 132.04289 647.29875 131.94899 647.27389 131.81641 647.27539 z M 414.99414 651.88672 C 414.27113 651.91044 413.62499 652.54103 412.49805 653.66797 C 409.74888 656.41714 409.46257 657.83249 410.71094 662.48633 C 411.37933 664.97807 411.96913 665.19902 415.02539 664.09961 C 416.97282 663.39908 419.70342 661.97062 421.0918 660.92578 C 423.51556 659.10175 423.44489 658.86892 419.35547 655.04883 C 416.98066 652.83042 415.92373 651.85623 414.99414 651.88672 z M 405.90039 653.31836 L 395.56641 662.69336 C 389.88307 667.85011 380.44712 676.91304 374.59766 682.83398 L 363.96289 693.59961 L 384.93164 693.59961 L 405.90039 693.59961 L 405.90039 673.45898 L 405.90039 653.31836 z M 118.23242 660.4707 C 117.99194 660.46751 117.74421 660.4832 117.49023 660.51953 C 114.13849 660.99894 112.95125 664.84952 115.28711 667.66406 C 117.33789 670.13509 118.5393 670.10327 121.13477 667.50781 C 123.82523 664.81735 121.83959 660.51861 118.23242 660.4707 z M 426.00195 676.82617 C 425.2958 676.80831 424.56889 677.0448 423.90039 677.59961 C 421.80058 679.3423 421.23886 683.16074 422.8457 684.76758 C 424.72751 686.64939 429.23656 684.91011 429.63086 682.15039 C 430.04875 679.22553 428.12042 676.87976 426.00195 676.82617 z M 132.27539 680.36914 L 125.43359 683.83594 C 119.6008 686.79163 118.98327 687.45026 121.24609 688.29492 C 122.70599 688.83987 125.00714 690.51576 126.35938 692.01953 C 127.7116 693.52329 129.5977 694.45437 130.55273 694.08789 C 132.62737 693.29178 133.77278 688.20376 132.90234 683.65039 L 132.27539 680.36914 z M 414.40625 685.59961 C 412.00897 685.59961 409.90039 689.92783 409.90039 694.8457 C 409.90039 699.84909 410.81264 699.89341 419.61133 695.3125 C 425.1473 692.43028 425.98193 691.59891 423.70508 691.23828 C 422.13166 690.98906 419.79023 689.61711 418.5 688.19141 C 417.20976 686.76571 415.36679 685.59961 414.40625 685.59961 z M 118.46289 694.01758 C 115.27057 694.00407 112.59423 697.75368 115.29492 701.00781 C 117.36811 703.50585 120.45352 703.05053 122.40039 699.95898 C 123.51865 698.18324 123.34455 697.14142 121.64648 695.44336 C 120.64792 694.44479 119.527 694.02208 118.46289 694.01758 z M 391.41797 698.98633 C 374.16515 698.93931 369.21691 699.51827 341.41797 704.84766 C 324.44925 708.10077 288.27335 714.70723 261.02539 719.52734 C 205.31104 729.38309 186.08779 733.1603 161.69336 739.04492 L 144.81836 743.11523 L 146.68359 746.69141 C 147.70972 748.65822 148.55359 751.01693 148.55859 751.93359 C 148.56987 754.22203 149.17207 754.13473 172.56641 748.46484 L 193.23242 743.45508 L 193.90039 738.86133 L 194.56641 734.26758 L 224.56641 733.53125 C 253.81872 732.81361 255.61316 732.60313 296.56641 725.11328 C 358.95342 713.70344 395.39271 705.64651 406.50391 700.80664 C 410.13051 699.22695 408.50941 699.03293 391.41797 698.98633 z M 210.05664 699.03906 C 189.72373 699.06352 186.48055 699.59905 171.90039 702.95898 C 153.00761 707.31272 132.21002 713.80729 124.06641 717.89648 L 118.89844 720.49219 L 123.06641 723.02539 C 125.35859 724.41934 127.23242 726.23407 127.23242 727.05664 C 127.23242 727.96763 128.14512 728.16684 129.56641 727.56641 C 144.45232 721.27775 182.32756 711.93489 226.56641 703.64062 L 250.56641 699.14258 L 219.90039 699.05273 C 216.21529 699.04211 212.96134 699.03557 210.05664 699.03906 z M 425.90039 711.59961 C 422.14821 711.59961 420.7309 715.25004 423.28711 718.33008 C 424.17079 719.39485 425.34664 720.26758 425.90039 720.26758 C 427.79922 720.26758 430.11986 716.39527 429.6582 713.99805 C 429.36224 712.46129 428.01369 711.59961 425.90039 711.59961 z M 415.67969 719.17578 L 402.45703 723.59375 C 395.18445 726.02373 380.38749 730.01918 369.57617 732.47266 L 349.91992 736.93359 L 349.91016 742.59961 C 349.9039 746.25193 350.4922 748.26472 351.56641 748.26172 C 352.48307 748.25893 361.99393 746.20906 372.70117 743.70703 C 394.14306 738.69657 415.24578 732.02254 420.85156 728.47852 L 424.4707 726.19141 L 420.07617 722.68359 L 415.67969 719.17578 z M 117.83594 727.23633 C 117.71515 727.2382 117.60521 727.25464 117.50781 727.28711 C 115.15814 728.07034 113.42164 731.76438 114.3125 734.08594 C 115.46092 737.07865 120.16906 736.83352 121.84961 733.69336 C 122.89439 731.74119 122.70833 730.59897 121.07617 728.9668 C 120.04046 727.93109 118.68148 727.22321 117.83594 727.23633 z M 232.98047 738.93359 C 225.34046 738.93359 223.20788 739.41675 221.23242 741.59961 C 218.84096 744.24218 218.90542 744.26758 228.1543 744.26758 C 235.79431 744.26758 237.92493 743.78247 239.90039 741.59961 C 242.29185 738.95704 242.22934 738.93359 232.98047 738.93359 z M 256.42773 738.93359 C 247.98582 738.93359 246.29905 739.32246 244.87695 741.59961 C 243.27241 744.16888 243.54539 744.26758 252.34961 744.26758 C 259.79427 744.26758 261.93429 743.77213 263.90039 741.59961 C 266.29307 738.95574 266.22919 738.93359 256.42773 738.93359 z M 303.75977 738.93359 C 295.98453 738.93359 294.28146 739.35062 292.87695 741.59961 C 291.2772 744.16121 291.54409 744.26758 299.68164 744.26758 C 306.45963 744.26758 308.6355 743.73324 310.56641 741.59961 C 312.9576 738.95734 312.89457 738.93359 303.75977 738.93359 z M 327.64648 738.93359 C 320.00647 738.93359 317.87585 739.41675 315.90039 741.59961 C 313.50893 744.24218 313.57144 744.26758 322.82031 744.26758 C 330.46032 744.26758 332.59095 743.78247 334.56641 741.59961 C 336.95787 738.95704 336.89536 738.93359 327.64648 738.93359 z M 280.43945 738.97461 C 273.33944 739.00964 271.28083 739.56106 268.23242 742.24414 C 264.91191 745.16671 264.56641 746.32322 264.56641 754.49023 L 264.56641 763.50977 L 271.90234 756.26367 C 275.93687 752.27926 279.5773 747.94979 279.99219 746.64258 C 280.40708 745.33538 281.51229 744.26758 282.44922 744.26758 C 283.38614 744.26758 285.23909 743.06628 286.56641 741.59961 C 288.95611 738.95898 288.89594 738.93291 280.43945 738.97461 z M 209.04297 738.97852 C 202.07097 738.94605 199.32598 739.43406 198.80078 740.80273 C 198.40621 741.83103 198.4425 743.03038 198.88086 743.46875 C 200.85546 745.44335 212.38423 744.17189 215.41797 741.64453 L 218.56641 739.02148 L 209.04297 738.97852 z M 343.69141 739.50391 C 342.67458 739.52855 341.41318 740.16104 340.13672 741.4375 L 337.30664 744.26758 L 341.60352 744.26758 C 344.45536 744.26758 345.90039 743.62104 345.90039 742.3457 C 345.90039 740.44625 344.99875 739.47223 343.69141 739.50391 z M 138.56641 746.93359 C 136.43655 746.93359 135.05906 750.26269 136.08398 752.93359 C 137.05878 755.47388 141.90039 755.56498 141.90039 753.04297 C 141.90039 749.77663 140.34865 746.93359 138.56641 746.93359 z M 425.02734 746.93359 C 422.36852 746.93359 421.14338 750.96904 423.37305 752.38086 C 425.69319 753.84991 426.11098 753.84701 428.48047 752.34766 C 430.06692 751.34379 430.0959 750.77689 428.65039 749.03516 C 427.69109 747.87927 426.06056 746.93359 425.02734 746.93359 z M 328.56641 748.41797 C 317.19974 748.35722 307.17229 748.76897 306.2832 749.33398 C 305.3733 749.91221 305.00489 751.65268 305.43945 753.31445 C 306.41596 757.04863 307.39715 757.00937 330.56641 752.3125 L 349.23242 748.5293 L 328.56641 748.41797 z M 280.56641 754.34961 L 272.56641 762.26758 L 264.56641 770.18359 L 264.56641 778.84961 L 264.56641 787.51562 L 272.56641 779.59961 L 280.56641 771.68359 L 280.56641 763.01758 L 280.56641 754.34961 z M 280.56641 777.01758 L 272.56641 784.93359 L 264.56641 792.84961 L 264.56641 802.18359 L 264.56641 811.51562 L 272.56641 803.59961 L 280.56641 795.68359 L 280.56641 786.34961 L 280.56641 777.01758 z M 280.56641 801.01758 L 272.56641 808.93359 L 264.56641 816.84961 L 264.56641 825.51562 L 264.56641 834.18359 L 272.56641 826.26758 L 280.56641 818.34961 L 280.56641 809.68359 L 280.56641 801.01758 z M 284.56641 821.59961 L 284.56641 836.51367 C 284.56641 849.99121 284.845 851.72497 287.46484 854.51367 C 289.05934 856.21093 291.45999 857.59961 292.79883 857.59961 C 295.03539 857.59961 295.23242 856.13785 295.23242 839.59961 L 295.23242 821.59961 L 289.90039 821.59961 L 284.56641 821.59961 z M 248.21289 822.26758 L 249.05664 826.76758 C 249.52033 829.24258 249.90039 837.19193 249.90039 844.43359 L 249.90039 857.59961 L 254.56641 857.59961 L 259.23242 857.59961 L 259.23242 845.20312 L 259.23242 832.80859 L 253.72266 827.53711 L 248.21289 822.26758 z M 280.56641 825.01758 L 272.56641 832.93359 L 264.56641 840.84961 L 264.56641 849.51562 L 264.56641 858.18359 L 272.56641 850.26758 L 280.56641 842.34961 L 280.56641 833.68359 L 280.56641 825.01758 z M 279.60938 849.59961 C 279.08244 849.59961 275.48244 852.72974 271.60938 856.55469 L 264.56641 863.50977 L 264.56641 872.8457 L 264.56641 882.18359 L 272.56641 874.26758 L 280.56641 866.34961 L 280.56641 857.97461 C 280.56641 853.36832 280.13632 849.59961 279.60938 849.59961 z M 280.56641 871.68359 L 272.56641 879.59961 C 264.99909 887.08796 264.56641 887.86367 264.56641 893.91797 C 264.56641 900.2202 264.62203 900.30507 268.23242 899.45703 C 270.24909 898.98334 273.84909 896.75275 276.23242 894.50195 C 280.32144 890.64031 280.56641 889.88234 280.56641 881.04688 L 280.56641 871.68359 z "
     id="emptyZone" />
  <path
     style="fill:#ac9d93;fill-opacity:1;stroke-width:1.33333337"
     d="m 476.56667,480.93333 v -18 H 499.9 523.23333 v 18 18 H 499.9 476.56667 Z"
     id="T8"
     inkscape:connector-curvature="0" />
  <path
     style="fill:#ac9d93;fill-opacity:1;stroke-width:1.33333337"
     d=""
     id="path9112"
     inkscape:connector-curvature="0" />
  <path
     style="fill:#ac9d93;fill-opacity:1;stroke-width:1.33333337"
     d=""
     id="path9114"
     inkscape:connector-curvature="0" />
  <path
     style="fill:#ac9d93;fill-opacity:1;stroke-width:1.33333337"
     d=""
     id="path9120"
     inkscape:connector-curvature="0" />
  <path
     style="fill:#ac9d93;fill-opacity:1;stroke-width:1.33333337"
     d="m 145.61892,499.27811 c 4.61207,-0.2611 11.81207,-0.25895 16,0.005 4.18793,0.26374 0.41441,0.47737 -8.38559,0.47474 -8.8,-0.003 -12.22648,-0.21843 -7.61441,-0.47954 z"
     id="path9156"
     inkscape:connector-curvature="0" />
  <path
     style="fill:#ac9d93;fill-opacity:1;stroke-width:1.33333337"
     d=""
     id="path9180"
     inkscape:connector-curvature="0" />
  <path
     style="fill:#ac9d93;fill-opacity:1;stroke-width:1.33333337"
     d=""
     id="path9182"
     inkscape:connector-curvature="0" />
  <path
     style="fill:#ac9d93;fill-opacity:1;stroke-width:1.33333337"
     d=""
     id="path9184"
     inkscape:connector-curvature="0" />
  <path
     style="fill:#ac9d93;fill-opacity:1;stroke-width:1.33333337"
     d=""
     id="path9190"
     inkscape:connector-curvature="0" />
  <path
     style="fill:#ac9d93;fill-opacity:1;stroke-width:1.33333337"
     d=""
     id="path9206"
     inkscape:connector-curvature="0" />
  <path
     style="fill:#ac9d93;fill-opacity:1;stroke-width:1.33333337"
     d="m 438.38697,418.26667 c 0.003,-7.33334 0.22738,-10.16322 0.49757,-6.28864 0.27019,3.87458 0.26735,9.87458 -0.006,13.33333 -0.27366,3.45875 -0.49473,0.28864 -0.49126,-7.04469 z"
     id="path9216"
     inkscape:connector-curvature="0" />
  <path
     style="fill:#ac9d93;fill-opacity:1;stroke-width:1.33333337"
     d=""
     id="path9230"
     inkscape:connector-curvature="0" />
  <path
     style="fill:#ac9d93;fill-opacity:1;stroke-width:1.33333337"
     d=""
     id="path9234"
     inkscape:connector-curvature="0" />
  <path
     style="fill:#ac9d93;fill-opacity:1;stroke-width:1.33333337"
     d="m 272.56667,781.98078 c 0,-1.87786 7.62772,-8.74354 8.32146,-7.49011 0.33769,0.61013 -1.39649,2.81843 -3.85374,4.90732 -2.45725,2.08889 -4.46772,3.25115 -4.46772,2.58279 z"
     id="path9238"
     inkscape:connector-curvature="0" />
  <path
     style="fill:#ac9d93;fill-opacity:1;stroke-width:1.33333337"
     d=""
     id="path9244"
     inkscape:connector-curvature="0" />
  <path
     style="fill:#ac9d93;fill-opacity:1;stroke-width:1.33333337"
     d=""
     id="path9256"
     inkscape:connector-curvature="0" />
  <path
     style="fill:#ac9d93;fill-opacity:1;stroke-width:1.33333337"
     d=""
     id="path9262"
     inkscape:connector-curvature="0" />
  <path
     style="fill:#ac9d93;fill-opacity:1;stroke-width:1.33333337"
     d="m 203.59204,744.67601 c 1.29729,-0.33806 3.09729,-0.31582 4,0.0494 0.90271,0.36523 -0.15871,0.64182 -2.35871,0.61465 -2.2,-0.0272 -2.93858,-0.326 -1.64129,-0.66406 z"
     id="path9264"
     inkscape:connector-curvature="0" />
  <path
     style="fill:#ac9d93;fill-opacity:1;stroke-width:1.33333337"
     d=""
     id="path9266"
     inkscape:connector-curvature="0" />
  <path
     style="fill:#ac9d93;fill-opacity:1;stroke-width:1.33333337"
     d=""
     id="path9282"
     inkscape:connector-curvature="0" />
  <path
     style="fill:#ac9d93;fill-opacity:1"
     id="path9286"
     d="m 267.25138,899.7822 c 3.39847,0.0173 6.79702,0.009 10.19551,0.007 2.20407,-0.006 4.40815,-0.005 6.61223,-0.0107 0.27582,-5e-5 0.55165,-10e-5 0.82747,-1.5e-4 0,0 -4.28153,3.11071 -4.28153,3.11071 v 0 c -0.27568,-5e-5 -0.55137,-10e-5 -0.82706,-1.5e-4 -2.19426,-0.005 -4.38853,-0.004 -6.5828,-0.0107 -3.40457,-0.002 -6.80919,-0.0107 -10.21373,0.007 0,0 4.26991,-3.10227 4.26991,-3.10227 z"
     inkscape:connector-curvature="0" />
</svg>
